<svg xmlns="http://www.w3.org/2000/svg" viewBox="0 0 256 256">
  <defs>
    <linearGradient id="grad1" x1="0%" y1="0%" x2="100%" y2="100%">
      <stop offset="0%" style="stop-color:#2D4A3E;stop-opacity:1" />
      <stop offset="100%" style="stop-color:#C4622D;stop-opacity:1" />
    </linearGradient>
  </defs>
  <rect width="256" height="256" fill="#2D4A3E"/>
  <path d="M128 60 L140 100 L160 80 L150 120 L175 110 L160 145 L185 140 L165 170 L128 190 L91 170 L71 140 L96 145 L81 110 L106 120 L96 80 L116 100 L128 60 Z" fill="url(#grad1)" stroke="#C4622D" stroke-width="3"/>
  <circle cx="128" cy="100" r="18" fill="#C4622D"/>
  <circle cx="128" cy="100" r="8" fill="#2D4A3E"/>
  <path d="M128 190 Q110 210 95 230 M128 190 Q128 215 128 240 M128 190 Q146 210 161 230" stroke="url(#grad1)" stroke-width="8" fill="none" stroke-linecap="round"/>
</svg>